<svg width="12" height="11" viewBox="0 0 12 11" fill="none" xmlns="http://www.w3.org/2000/svg">
<path d="M6.89812 1.0586C7.23659 0.851809 7.67973 0.998403 7.82811 1.36624L8.15287 2.17132C8.24386 2.39688 8.45451 2.55165 8.69696 2.57106L9.5623 2.64034C9.95768 2.67199 10.23 3.05106 10.1339 3.43586L9.92337 4.27807C9.8644 4.51403 9.94385 4.76307 10.1286 4.92128L10.7879 5.48595C11.0892 5.74396 11.0867 6.21071 10.7827 6.4655L10.1174 7.02314C9.93102 7.17938 9.84892 7.42755 9.90538 7.66413L10.1069 8.50853C10.199 8.89433 9.92262 9.27048 9.52693 9.29793L8.6609 9.35801C8.41826 9.37484 8.20597 9.52736 8.11259 9.75195L7.7793 10.5535C7.62702 10.9198 7.18235 11.0616 6.8461 10.8513L6.11015 10.3908C5.90396 10.2618 5.64256 10.2604 5.43501 10.3873L4.69421 10.8398C4.35575 11.0466 3.9126 10.9 3.76422 10.5322L3.43947 9.72712C3.34848 9.50155 3.13782 9.34679 2.89537 9.32738L2.03004 9.2581C1.63466 9.22645 1.36232 8.84738 1.45849 8.46258L1.66897 7.62037C1.72794 7.3844 1.64848 7.13537 1.46375 6.97716L0.804391 6.41248C0.503131 6.15448 0.50561 5.68773 0.809595 5.43294L1.47491 4.8753C1.66132 4.71906 1.74342 4.47089 1.68696 4.23431L1.48544 3.38991C1.39336 3.00411 1.66972 2.62795 2.06541 2.60051L2.93143 2.54043C3.17408 2.5236 3.38636 2.37108 3.47974 2.14649L3.81303 1.34491C3.96531 0.978669 4.40999 0.836792 4.74624 1.04717L5.48218 1.5076C5.68838 1.6366 5.94977 1.63799 6.15733 1.51119L6.89812 1.0586Z" fill="#2F80ED"/>
<path d="M7.38169 4.23395C7.46122 4.15823 7.56706 4.11637 7.67688 4.1172C7.78669 4.11803 7.89188 4.16149 7.97027 4.2384C8.04865 4.31532 8.09408 4.41968 8.09698 4.52945C8.09989 4.63923 8.06003 4.74584 7.98582 4.82679L5.73302 7.6442C5.69429 7.68592 5.64753 7.71941 5.59556 7.74265C5.54359 7.76589 5.48746 7.77841 5.43054 7.77947C5.37361 7.78052 5.31706 7.77009 5.26426 7.74879C5.21146 7.72748 5.1635 7.69575 5.12324 7.65549L3.62928 6.16153C3.58768 6.12277 3.55431 6.07602 3.53117 6.02407C3.50802 5.97213 3.49558 5.91605 3.49457 5.8592C3.49357 5.80234 3.50403 5.74586 3.52533 5.69313C3.54662 5.6404 3.57832 5.59251 3.61854 5.5523C3.65875 5.51208 3.70664 5.48038 3.75937 5.45909C3.8121 5.43779 3.86858 5.42733 3.92544 5.42833C3.98229 5.42934 4.03837 5.44178 4.09031 5.46493C4.14225 5.48807 4.189 5.52144 4.22777 5.56304L5.41007 6.74478L7.37096 4.24637C7.37449 4.24203 7.37826 4.23788 7.38225 4.23395H7.38169Z" fill="white"/>
</svg>
