<svg width="131" height="67" viewBox="0 0 131 67" fill="none" xmlns="http://www.w3.org/2000/svg">
<path d="M1.69409 1.51953C22.49 3.25252 23.7778 44.7414 44.3608 49.5195C61.3339 53.4597 69.9286 31.0933 87.0274 33.5195C105.574 36.1511 111.509 59.4577 129.694 65.5195H1.69409V1.51953Z" fill="#FEF3F2"/>
<path d="M1.69409 1.51953C22.49 3.25252 23.7778 44.7414 44.3608 49.5195C61.3339 53.4597 69.9286 31.0933 87.0274 33.5195C105.574 36.1511 111.509 59.4577 129.694 65.5195H1.69409V1.51953Z" fill="url(#paint0_linear_1976_38408)"/>
<path d="M129.694 65.5195C111.509 59.4577 105.574 36.1511 87.0274 33.5195C69.9286 31.0933 61.3339 53.4597 44.3608 49.5195C23.7778 44.7414 22.49 3.25252 1.69409 1.51953" stroke="#F04438" stroke-width="2" stroke-linecap="round" stroke-linejoin="round"/>
<defs>
<linearGradient id="paint0_linear_1976_38408" x1="65.6941" y1="1.51953" x2="65.6941" y2="65.5195" gradientUnits="userSpaceOnUse">
<stop offset="0.641167" stop-color="white" stop-opacity="0"/>
<stop offset="1" stop-color="white"/>
</linearGradient>
</defs>
</svg>
