<svg width="10" height="6" viewBox="0 0 10 6" fill="none" xmlns="http://www.w3.org/2000/svg">
<path d="M9.4703 0.337317C9.34182 0.208874 9.16758 0.136719 8.98591 0.136719C8.80424 0.136719 8.63 0.208874 8.50152 0.337317L5.1101 3.72874L1.71868 0.337317C1.58946 0.212514 1.41639 0.143456 1.23675 0.145017C1.05711 0.146578 0.885271 0.218633 0.758242 0.345663C0.631212 0.472692 0.559158 0.644533 0.557597 0.824173C0.556036 1.00381 0.625094 1.17688 0.749896 1.3061L4.62571 5.18191C4.75419 5.31035 4.92842 5.38251 5.1101 5.38251C5.29177 5.38251 5.46601 5.31035 5.59449 5.18191L9.4703 1.3061C9.59874 1.17762 9.6709 1.00338 9.6709 0.821708C9.6709 0.640035 9.59874 0.465799 9.4703 0.337317V0.337317Z" fill="#344054"/>
</svg>
