<svg width="4" height="16" viewBox="0 0 4 16" fill="none" xmlns="http://www.w3.org/2000/svg">
<path d="M2.33333 8.59375C2.79357 8.59375 3.16667 8.22065 3.16667 7.76042C3.16667 7.30018 2.79357 6.92708 2.33333 6.92708C1.8731 6.92708 1.5 7.30018 1.5 7.76042C1.5 8.22065 1.8731 8.59375 2.33333 8.59375Z" stroke="#98A2B3" stroke-width="1.66667" stroke-linecap="round" stroke-linejoin="round"/>
<path d="M2.33333 2.76042C2.79357 2.76042 3.16667 2.38732 3.16667 1.92708C3.16667 1.46685 2.79357 1.09375 2.33333 1.09375C1.8731 1.09375 1.5 1.46685 1.5 1.92708C1.5 2.38732 1.8731 2.76042 2.33333 2.76042Z" stroke="#98A2B3" stroke-width="1.66667" stroke-linecap="round" stroke-linejoin="round"/>
<path d="M2.33333 14.4271C2.79357 14.4271 3.16667 14.054 3.16667 13.5937C3.16667 13.1335 2.79357 12.7604 2.33333 12.7604C1.8731 12.7604 1.5 13.1335 1.5 13.5937C1.5 14.054 1.8731 14.4271 2.33333 14.4271Z" stroke="#98A2B3" stroke-width="1.66667" stroke-linecap="round" stroke-linejoin="round"/>
</svg>
