<svg width="18" height="19" viewBox="0 0 18 19" fill="none" xmlns="http://www.w3.org/2000/svg">
<path d="M9 0.65625C7.21997 0.65625 5.47991 1.18409 3.99987 2.17302C2.51983 3.16196 1.36628 4.56756 0.685088 6.2121C0.00389957 7.85663 -0.17433 9.66623 0.172936 11.4121C0.520203 13.1579 1.37737 14.7615 2.63604 16.0202C3.89471 17.2789 5.49836 18.136 7.24419 18.4833C8.99002 18.8306 10.7996 18.6524 12.4442 17.9712C14.0887 17.29 15.4943 16.1364 16.4832 14.6564C17.4722 13.1763 18 11.4363 18 9.65625C17.9974 7.27009 17.0484 4.98241 15.3611 3.29514C13.6738 1.60787 11.3862 0.658831 9 0.65625V0.65625ZM9 17.1562C7.51664 17.1562 6.06659 16.7164 4.83323 15.8923C3.59986 15.0682 2.63856 13.8968 2.07091 12.5264C1.50325 11.1559 1.35473 9.64793 1.64411 8.19307C1.9335 6.73821 2.64781 5.40184 3.6967 4.35295C4.7456 3.30405 6.08197 2.58975 7.53683 2.30036C8.99168 2.01097 10.4997 2.1595 11.8701 2.72715C13.2406 3.29481 14.4119 4.2561 15.236 5.48947C16.0601 6.72284 16.5 8.17289 16.5 9.65625C16.4978 11.6447 15.7069 13.5511 14.3009 14.9571C12.8948 16.3632 10.9885 17.1541 9 17.1562V17.1562Z" fill="#D0D5DD"/>
</svg>
