<svg width="16" height="19" viewBox="0 0 16 19" fill="none" xmlns="http://www.w3.org/2000/svg">
<path d="M1.38537 18.3214C1.38537 18.6962 1.08156 19 0.7068 19V19C0.332035 19 0.0282288 18.6962 0.0282288 18.3214V1C0.0282288 0.447715 0.475944 0 1.02823 0H14.4798C15.2715 0 15.7493 0.876245 15.3204 1.5417L12.7273 5.56544C12.5148 5.89529 12.5148 6.31899 12.7273 6.64884L15.3204 10.6726C15.7493 11.338 15.2715 12.2143 14.4798 12.2143H2.38537C1.83309 12.2143 1.38537 12.662 1.38537 13.2143V18.3214ZM1.38537 9.85714C1.38537 10.4094 1.83309 10.8571 2.38537 10.8571H11.9853C12.7778 10.8571 13.2554 9.9792 12.8248 9.31384L11.1013 6.65044C10.8873 6.31984 10.8873 5.89445 11.1012 5.56384L12.8248 2.90045C13.2554 2.23509 12.7778 1.35714 11.9853 1.35714H2.38537C1.83309 1.35714 1.38537 1.80486 1.38537 2.35714V9.85714Z" fill="#D0D5DD"/>
</svg>
