<svg width="13" height="11" viewBox="0 0 13 11" fill="none" xmlns="http://www.w3.org/2000/svg">
<path d="M9.00412 0.988281C8.47034 0.996584 7.94821 1.14559 7.49045 1.42024C7.03269 1.6949 6.6555 2.08549 6.39699 2.55256C6.13848 2.08549 5.76129 1.6949 5.30353 1.42024C4.84577 1.14559 4.32364 0.996584 3.78986 0.988281C2.93897 1.02525 2.13728 1.39748 1.55996 2.02366C0.982634 2.64983 0.6766 3.47905 0.708716 4.33014C0.708716 6.48553 2.97739 8.83952 4.88012 10.4356C5.30495 10.7926 5.84208 10.9883 6.39699 10.9883C6.9519 10.9883 7.48904 10.7926 7.91386 10.4356C9.81659 8.83952 12.0853 6.48553 12.0853 4.33014C12.1174 3.47905 11.8113 2.64983 11.234 2.02366C10.6567 1.39748 9.85502 1.02525 9.00412 0.988281ZM7.30474 9.7103C7.05066 9.92427 6.72916 10.0416 6.39699 10.0416C6.06482 10.0416 5.74332 9.92427 5.48924 9.7103C3.05371 7.66679 1.65676 5.70623 1.65676 4.33014C1.62436 3.73037 1.83043 3.14211 2.23003 2.69367C2.62963 2.24523 3.19034 1.97299 3.78986 1.93633C4.38939 1.97299 4.9501 2.24523 5.3497 2.69367C5.7493 3.14211 5.95537 3.73037 5.92297 4.33014C5.92297 4.45586 5.97291 4.57643 6.06181 4.66533C6.1507 4.75422 6.27127 4.80417 6.39699 4.80417C6.52271 4.80417 6.64328 4.75422 6.73218 4.66533C6.82107 4.57643 6.87101 4.45586 6.87101 4.33014C6.83861 3.73037 7.04468 3.14211 7.44428 2.69367C7.84388 2.24523 8.40459 1.97299 9.00412 1.93633C9.60364 1.97299 10.1644 2.24523 10.564 2.69367C10.9636 3.14211 11.1696 3.73037 11.1372 4.33014C11.1372 5.70623 9.74027 7.66679 7.30474 9.70841V9.7103Z" fill="#667085"/>
</svg>
