<svg width="16" height="18" viewBox="0 0 16 18" fill="none" xmlns="http://www.w3.org/2000/svg">
<path d="M7.52742 4.52344C6.93732 4.52344 6.36047 4.69842 5.86982 5.02626C5.37917 5.3541 4.99676 5.82008 4.77094 6.36526C4.54512 6.91044 4.48603 7.51034 4.60115 8.0891C4.71628 8.66786 5.00044 9.19948 5.4177 9.61674C5.83496 10.034 6.36659 10.3182 6.94535 10.4333C7.52411 10.5484 8.12401 10.4893 8.66919 10.2635C9.21437 10.0377 9.68034 9.65527 10.0082 9.16462C10.336 8.67397 10.511 8.09713 10.511 7.50703C10.511 6.71573 10.1967 5.95684 9.63713 5.39731C9.0776 4.83778 8.31871 4.52344 7.52742 4.52344ZM7.52742 8.99882C7.23237 8.99882 6.94394 8.91133 6.69862 8.74741C6.45329 8.58349 6.26209 8.3505 6.14918 8.07791C6.03627 7.80532 6.00672 7.50537 6.06428 7.21599C6.12185 6.92661 6.26393 6.6608 6.47256 6.45217C6.68119 6.24354 6.947 6.10146 7.23638 6.0439C7.52576 5.98634 7.82571 6.01588 8.0983 6.12879C8.37089 6.2417 8.60388 6.43291 8.7678 6.67823C8.93172 6.92356 9.01921 7.21198 9.01921 7.50703C9.01921 7.90268 8.86204 8.28212 8.58227 8.56189C8.30251 8.84165 7.92306 8.99882 7.52742 8.99882Z" fill="#667085"/>
<path d="M7.52734 17.9499C6.89926 17.9531 6.27954 17.8058 5.72008 17.5203C5.16063 17.2348 4.67771 16.8194 4.31178 16.3089C1.46916 12.3878 0.0273438 9.43996 0.0273438 7.54688C0.0273438 5.55775 0.81752 3.6501 2.22404 2.24357C3.63057 0.837051 5.53822 0.046875 7.52734 0.046875C9.51647 0.046875 11.4241 0.837051 12.8306 2.24357C14.2372 3.6501 15.0273 5.55775 15.0273 7.54688C15.0273 9.43996 13.5855 12.3878 10.7429 16.3089C10.377 16.8194 9.89406 17.2348 9.3346 17.5203C8.77515 17.8058 8.15543 17.9531 7.52734 17.9499V17.9499ZM7.52734 1.67517C5.97022 1.67695 4.47738 2.2963 3.37633 3.39735C2.27527 4.4984 1.65592 5.99124 1.65415 7.54837C1.65415 9.04762 3.06613 11.8201 5.62903 15.3549C5.84661 15.6546 6.13204 15.8985 6.46199 16.0667C6.79193 16.2349 7.15701 16.3226 7.52734 16.3226C7.89768 16.3226 8.26276 16.2349 8.5927 16.0667C8.92264 15.8985 9.20808 15.6546 9.42565 15.3549C11.9886 11.8201 13.4005 9.04762 13.4005 7.54837C13.3988 5.99124 12.7794 4.4984 11.6784 3.39735C10.5773 2.2963 9.08447 1.67695 7.52734 1.67517V1.67517Z" fill="#667085"/>
</svg>
