<svg width="90" height="41" viewBox="0 0 90 41" fill="none" xmlns="http://www.w3.org/2000/svg">
<g clip-path="url(#clip0_1972_41753)">
<rect width="40.6559" height="40.6559" rx="9.68749" fill="white"/>
<path d="M30.8041 40.6559H9.85175C4.41202 40.6559 0 36.2459 0 30.8041V9.85176C0 4.41202 4.40991 0 9.85175 0H30.8041C36.2438 0 40.6559 4.40991 40.6559 9.85176V30.8041C40.6559 36.2459 36.2459 40.6559 30.8041 40.6559Z" fill="url(#paint0_linear_1972_41753)"/>
<g opacity="0.63">
<g opacity="0.63">
<path d="M32.7192 -11.9492C32.7192 -11.9492 16.3305 -2.01744 19.062 10.6479C21.7934 23.3111 45.8795 31.5055 64.9996 19.8363C64.9996 19.8363 49.1079 45.9083 25.0219 41.9364C0.935845 37.9645 -26.8757 12.1368 -12.4729 1.45953C1.92987 -9.21777 32.7192 -11.9492 32.7192 -11.9492Z" fill="url(#paint1_radial_1972_41753)" style="mix-blend-mode:soft-light"/>
</g>
<g opacity="0.63">
<g opacity="0.63">
<path opacity="0.63" d="M21.5312 15.6087C36.252 9.236 61.191 4.62181 68.7725 -4.38545C74.5302 -11.2299 74.7092 -19.8412 74.4628 -23.5898C74.2522 -23.4424 74.0732 -23.2424 73.9595 -22.9917L73.9406 -22.9496C73.9406 -22.9496 73.8289 -22.7032 73.6141 -22.2273C73.3909 -21.7598 73.1719 -21.0564 72.7022 -20.2076C71.8935 -18.5039 70.59 -16.1199 68.545 -14.0161C66.5402 -11.8638 63.8277 -10.1769 60.2854 -8.67743C56.7242 -7.17587 52.1542 -5.85542 46.6998 -4.45284C41.2706 -3.01657 34.9948 -1.51922 28.224 0.56991C24.8271 1.61447 21.3775 2.82541 17.73 4.32065C16.8623 4.6913 15.9883 5.06196 15.1122 5.43472C13.8844 6.00754 12.6672 6.61617 11.4605 7.25007C10.2516 7.94293 9.05755 8.73057 7.88873 9.52031C6.73045 10.3901 5.5869 11.3188 4.46863 12.2644C0.0481867 16.2405 -3.62674 21.6907 -5.52212 27.7875C-6.55615 31.0286 -7.02579 34.4129 -7.01947 37.7593C-0.663634 25.8669 8.49315 21.2527 21.5312 15.6087Z" fill="url(#paint2_radial_1972_41753)"/>
<g opacity="0.4">
<path d="M46.9097 14.2777C52.6717 0.713117 53.9079 -17.4636 54.1669 -23.5898C53.87 -23.453 53.6151 -23.2255 53.4551 -22.9117C53.4551 -22.9117 53.3266 -22.6569 53.0655 -22.2083C52.8191 -21.745 52.4548 -21.0585 51.9788 -20.1634C51.0732 -18.4407 49.7465 -15.9157 48.0554 -12.7019C46.4127 -9.58089 44.4057 -5.9186 42.1481 -1.96568C39.8968 1.99776 37.2075 6.1697 34.2444 10.3437C31.2455 14.5199 27.7306 18.4307 24.0199 22.5163C20.3407 26.6061 16.3752 31.5278 10.6343 35.7081C9.94563 36.2788 9.17906 36.7127 8.4188 37.1823C7.65223 37.6414 6.88986 38.1511 6.07696 38.5512C5.25773 38.9324 4.4364 39.3515 3.58559 39.6968L2.30937 40.2423L2.22934 40.276C2.48205 40.2381 2.24829 40.2823 2.28199 40.2823L2.1114 40.3434L1.7576 40.4634L1.04789 40.6845C0.102302 40.9815 -0.85381 41.2468 -1.81203 41.508C-2.77025 41.7565 -3.60843 41.8765 -4.52663 42.0387C-4.87412 42.1061 -5.23003 42.1545 -5.58594 42.2029C12.9003 43.8898 40.1285 30.2452 46.9097 14.2777Z" fill="url(#paint3_radial_1972_41753)" fill-opacity="0.4" style="mix-blend-mode:screen"/>
</g>
</g>
<g opacity="0.4">
<path d="M66.9746 17.6136C66.286 18.1843 65.5194 18.6181 64.7591 19.0877C63.9926 19.5468 63.2302 20.0565 62.4173 20.4566C61.5981 20.8378 60.7767 21.2569 59.9259 21.6023L58.6497 22.1477L58.5697 22.1814C58.8224 22.1435 58.5886 22.1877 58.6223 22.1877L58.4454 22.2467L58.0916 22.3667L57.3819 22.5879C56.4363 22.8848 55.4802 23.1502 54.522 23.4113C53.5638 23.6598 52.7256 23.7799 51.8074 23.942C50.0257 24.2895 48.124 24.34 46.2455 24.3948C42.4969 24.3106 38.7377 23.7609 35.2839 22.4636C31.8322 21.1874 28.7786 19.1109 26.3735 16.788C25.1752 15.6087 24.1622 14.3346 23.3051 13.0668C22.865 12.4434 22.5322 11.7653 22.1489 11.1587C21.852 10.4911 21.5424 9.86146 21.296 9.22967C20.3231 6.69197 19.9629 4.37961 19.9693 2.42105C20.0724 0.456173 20.5168 -1.18017 21.4245 -2.43112C22.3237 -3.68418 23.4378 -4.64871 24.8846 -5.54796C25.2911 -5.74803 25.6659 -5.96705 26.0513 -6.18607C26.5125 -6.35245 26.919 -6.56515 27.3465 -6.78207C27.8203 -6.94423 28.2752 -7.12534 28.7154 -7.33594C28.4521 -7.29382 28.1931 -7.24538 27.9467 -7.18431C27.9467 -7.18431 19.7439 -5.71855 14.7633 1.75135C9.78265 9.22124 13.8851 26.9472 40.3972 26.0669C66.9115 25.1887 69.8409 20.2081 73.063 15.6655C73.4968 15.0548 73.2167 14.1387 72.3912 13.0225C70.7633 14.5957 68.9816 16.152 66.9746 17.6136Z" fill="url(#paint4_radial_1972_41753)" fill-opacity="0.4" style="mix-blend-mode:color-burn"/>
</g>
</g>
</g>
<path d="M9.58064 13.3019H30.9605C31.9461 13.3019 32.7443 12.5037 32.7443 11.5181C32.7443 10.5325 31.9461 9.73438 30.9605 9.73438H9.58064C8.59504 9.73438 7.79688 10.5325 7.79688 11.5181C7.79688 12.5037 8.59504 13.3019 9.58064 13.3019Z" fill="white"/>
<path d="M9.70173 27.8175H31.0837C32.0693 27.8175 32.8675 27.0194 32.8675 26.0338C32.8675 25.0482 32.0693 24.25 31.0837 24.25H9.70173C8.71613 24.25 7.91797 25.0482 7.91797 26.0338C7.91797 27.0194 8.71613 27.8175 9.70173 27.8175Z" fill="white"/>
<path d="M9.58064 20.5597H12.7564C13.742 20.5597 14.5402 19.7615 14.5402 18.7759C14.5402 17.7904 13.742 16.9922 12.7564 16.9922H9.58064C8.59504 16.9922 7.79688 17.7904 7.79688 18.7759C7.79688 19.7615 8.59504 20.5597 9.58064 20.5597Z" fill="white"/>
<path d="M18.6822 20.5597H21.858C22.8436 20.5597 23.6418 19.7615 23.6418 18.7759C23.6418 17.7904 22.8436 16.9922 21.858 16.9922H18.6822C17.6966 16.9922 16.8984 17.7904 16.8984 18.7759C16.8984 19.7615 17.6966 20.5597 18.6822 20.5597Z" fill="white"/>
<path d="M27.7877 20.5597H30.9635C31.9491 20.5597 32.7472 19.7615 32.7472 18.7759C32.7472 17.7904 31.9491 16.9922 30.9635 16.9922H27.7877C26.8021 16.9922 26.0039 17.7904 26.0039 18.7759C26.0018 19.7615 26.8021 20.5597 27.7877 20.5597Z" fill="white"/>
<path d="M26.9096 27.8146C26.9096 27.8146 25.01 27.5303 25.1343 29.3709C25.0606 32.1108 25.1343 29.3709 25.0606 32.1108C25.0079 34.0777 22.8556 33.9998 22.0595 33.0816C21.6257 32.4646 16.3882 28.5074 16.3882 28.5074C16.3882 28.5074 15.649 27.7345 14.0231 27.8125C12.1783 27.8125 26.9096 26.6289 26.9096 26.6289V27.8146Z" fill="white"/>
</g>
<path d="M49.3328 19.8079C51.2541 19.8079 52.6331 18.8649 52.6331 17.0615C52.6331 15.1874 51.0537 14.7749 49.8278 14.4684C49.0617 14.268 48.437 14.1148 48.437 13.6433C48.437 13.2543 48.8259 13.0775 49.2267 13.0775C49.6982 13.0775 50.0871 13.3251 50.0871 13.8555H52.3738C52.3738 12.1699 51.2305 11.1562 49.2503 11.1562C47.3054 11.1562 46.1149 12.0874 46.1149 13.714C46.1149 15.5882 47.6354 15.9536 48.8259 16.2482C49.6157 16.4368 50.2639 16.5901 50.2639 17.1087C50.2639 17.5566 49.8043 17.8159 49.3328 17.8159C48.8141 17.8159 48.3545 17.5212 48.3545 16.9319H46.0088C46.0088 18.7353 47.3172 19.8079 49.3328 19.8079Z" fill="white"/>
<path d="M57.0434 17.6862C56.5837 17.6862 56.3008 17.4034 56.3008 16.9555V14.9281H57.8449V13.2308H56.2537V11.3802H55.794L52.9415 14.4095V14.9281H54.1084V17.3208C54.1084 18.7353 54.9689 19.5957 56.3715 19.5957H57.8803V17.6862H57.0434Z" fill="white"/>
<path d="M62.4674 13.2072C61.7131 13.2072 61.1709 13.4194 60.723 13.938L60.3811 13.2308H58.9078V19.5957H61.1002V16.3661C61.1002 15.5528 61.4302 15.211 62.1963 15.211H63.0568V13.2072H62.4674Z" fill="white"/>
<path d="M70.3304 16.3543C70.3304 14.492 68.9159 13.0304 66.865 13.0304C64.8612 13.0304 63.4114 14.4684 63.4114 16.4132C63.4114 18.3581 64.873 19.8079 66.865 19.8079C68.4562 19.8079 69.7528 18.9003 70.2007 17.4505H68.0083C67.808 17.8277 67.3718 18.0516 66.865 18.0516C66.1696 18.0516 65.7099 17.6745 65.5684 16.9437H70.295C70.3186 16.7433 70.3304 16.5547 70.3304 16.3543ZM66.865 14.7513C67.5251 14.7513 67.9848 15.0931 68.1734 15.7296H65.6038C65.7806 15.0931 66.2285 14.7513 66.865 14.7513Z" fill="white"/>
<path d="M77.8814 16.3543C77.8814 14.492 76.467 13.0304 74.416 13.0304C72.4123 13.0304 70.9625 14.4684 70.9625 16.4132C70.9625 18.3581 72.424 19.8079 74.416 19.8079C76.0073 19.8079 77.3039 18.9003 77.7518 17.4505H75.5594C75.359 17.8277 74.9229 18.0516 74.416 18.0516C73.7206 18.0516 73.2609 17.6745 73.1195 16.9437H77.8461C77.8696 16.7433 77.8814 16.5547 77.8814 16.3543ZM74.416 14.7513C75.0761 14.7513 75.5358 15.0931 75.7244 15.7296H73.1548C73.3316 15.0931 73.7796 14.7513 74.416 14.7513Z" fill="white"/>
<path d="M82.2404 17.6862C81.7807 17.6862 81.4978 17.4034 81.4978 16.9555V14.9281H83.0419V13.2308H81.4507V11.3802H80.991L78.1385 14.4095V14.9281H79.3054V17.3208C79.3054 18.7353 80.1659 19.5957 81.5685 19.5957H83.0773V17.6862H82.2404Z" fill="white"/>
<path d="M86.7215 17.6509L89.126 13.5962V13.2308H83.869V15.1756H86.0968L83.6569 19.2775V19.5957H89.1496V17.6509H86.7215Z" fill="white"/>
<path d="M49.8194 27.345C49.3528 27.345 49.0656 27.0578 49.0656 26.6032V24.5453H50.6329V22.8225H49.0178V20.944H48.5511L45.6558 24.0189V24.5453H46.8402V26.9741C46.8402 28.4098 47.7136 29.2832 49.1374 29.2832H50.6688V27.345H49.8194Z" fill="white"/>
<path d="M56.8699 22.8225L56.6425 23.325C56.1161 22.8823 55.4341 22.631 54.6684 22.631C52.6943 22.631 51.2825 24.0548 51.2825 26.0528C51.2825 28.0629 52.6943 29.4986 54.6684 29.4986C55.4222 29.4986 56.0922 29.2593 56.6186 28.8286L56.81 29.2832H58.5329V22.8225H56.8699ZM54.9675 27.5364C54.13 27.5364 53.5198 26.9023 53.5198 26.0528C53.5198 25.2153 54.13 24.5932 54.9675 24.5932C55.805 24.5932 56.4152 25.2153 56.4152 26.0528C56.4152 26.9023 55.805 27.5364 54.9675 27.5364Z" fill="white"/>
<path d="M59.9373 29.2832H62.1627V20.4894H59.9373V29.2832Z" fill="white"/>
<path d="M70.1278 29.2832L67.9024 25.9093L69.9244 22.8225H67.4239L65.8804 25.3589V20.4894H63.6551V29.2832H65.8804V26.5553L67.4956 29.2832H70.1278Z" fill="white"/>
<defs>
<linearGradient id="paint0_linear_1972_41753" x1="56.2571" y1="31.521" x2="-21.7573" y2="7.21846" gradientUnits="userSpaceOnUse">
<stop stop-color="#ED2029"/>
<stop offset="0.2194" stop-color="#ED2C92"/>
<stop offset="0.2644" stop-color="#E73794"/>
<stop offset="0.3247" stop-color="#DC4B9A"/>
<stop offset="0.3936" stop-color="#CA64A5"/>
<stop offset="0.4689" stop-color="#AF7BB3"/>
<stop offset="0.5495" stop-color="#8591C5"/>
<stop offset="0.6332" stop-color="#26A8DB"/>
<stop offset="0.6399" stop-color="#01AADD"/>
<stop offset="0.898" stop-color="#E9D01A"/>
</linearGradient>
<radialGradient id="paint1_radial_1972_41753" cx="0" cy="0" r="1" gradientUnits="userSpaceOnUse" gradientTransform="translate(7.39165 -39.6362) scale(89.5949 89.595)">
<stop stop-color="white"/>
<stop offset="0.2347" stop-color="#B1B1B1"/>
<stop offset="0.3827" stop-color="#9EA0A3"/>
<stop offset="0.5714" stop-color="#E6E7E8"/>
<stop offset="0.7041" stop-color="white"/>
<stop offset="0.9235" stop-color="#9EA0A3"/>
</radialGradient>
<radialGradient id="paint2_radial_1972_41753" cx="0" cy="0" r="1" gradientUnits="userSpaceOnUse" gradientTransform="translate(39.439 -24.8202) scale(70.1326 70.1326)">
<stop offset="0.3112" stop-color="white"/>
<stop offset="1" stop-color="white"/>
</radialGradient>
<radialGradient id="paint3_radial_1972_41753" cx="0" cy="0" r="1" gradientUnits="userSpaceOnUse" gradientTransform="translate(35.1184 -13.7745) scale(65.2961 65.2961)">
<stop offset="0.3112" stop-color="white"/>
<stop offset="1" stop-color="#010101"/>
</radialGradient>
<radialGradient id="paint4_radial_1972_41753" cx="0" cy="0" r="1" gradientUnits="userSpaceOnUse" gradientTransform="translate(34.7673 -0.889335) scale(30.849 30.849)">
<stop offset="0.25" stop-color="#010101"/>
<stop offset="1" stop-color="white"/>
</radialGradient>
<clipPath id="clip0_1972_41753">
<rect width="40.6559" height="40.6559" rx="9.68749" fill="white"/>
</clipPath>
</defs>
</svg>
