<svg width="16" height="14" viewBox="0 0 16 14" fill="none" xmlns="http://www.w3.org/2000/svg">
<path d="M11.9023 0.125H3.15234C2.32385 0.125992 1.52957 0.455551 0.943731 1.04139C0.357895 1.62722 0.0283362 2.4215 0.0273438 3.25L0.0273438 10.75C0.0283362 11.5785 0.357895 12.3728 0.943731 12.9586C1.52957 13.5445 2.32385 13.874 3.15234 13.875H11.9023C12.7308 13.874 13.5251 13.5445 14.111 12.9586C14.6968 12.3728 15.0264 11.5785 15.0273 10.75V3.25C15.0264 2.4215 14.6968 1.62722 14.111 1.04139C13.5251 0.455551 12.7308 0.125992 11.9023 0.125ZM3.15234 1.375H11.9023C12.2766 1.37574 12.642 1.48845 12.9517 1.69863C13.2613 1.90881 13.501 2.20684 13.6398 2.55438L8.85359 7.34125C8.50136 7.69207 8.02448 7.88904 7.52734 7.88904C7.03021 7.88904 6.55333 7.69207 6.20109 7.34125L1.41484 2.55438C1.55369 2.20684 1.79335 1.90881 2.103 1.69863C2.41264 1.48845 2.7781 1.37574 3.15234 1.375ZM11.9023 12.625H3.15234C2.65506 12.625 2.17815 12.4275 1.82652 12.0758C1.47489 11.7242 1.27734 11.2473 1.27734 10.75V4.1875L5.31734 8.225C5.90399 8.81016 6.69875 9.13877 7.52734 9.13877C8.35593 9.13877 9.1507 8.81016 9.73734 8.225L13.7773 4.1875V10.75C13.7773 11.2473 13.5798 11.7242 13.2282 12.0758C12.8765 12.4275 12.3996 12.625 11.9023 12.625Z" fill="#667085"/>
</svg>
