<svg width="18" height="19" viewBox="0 0 18 19" fill="none" xmlns="http://www.w3.org/2000/svg">
<path d="M17.4916 12.8047L15.5425 5.78043C14.5126 2.06149 10.663 -0.118424 6.94439 0.91145C4.45351 1.60155 2.54696 3.60999 1.98792 6.1332L0.480181 12.9172C0.211029 14.1298 0.975968 15.3307 2.18821 15.5999C2.34808 15.6354 2.51112 15.6533 2.67486 15.6533H5.37867C5.79048 17.6818 7.76906 18.9924 9.79754 18.5806C11.2726 18.2812 12.4251 17.1284 12.7248 15.6533H15.326C16.5681 15.6526 17.5745 14.6456 17.5738 13.4035C17.5738 13.2011 17.5464 12.9997 17.4923 12.8047H17.4916V12.8047ZM9.05193 17.1523C8.10252 17.1484 7.25747 16.5483 6.94123 15.653H11.163C10.8464 16.5483 10.0017 17.1484 9.05193 17.1523ZM15.922 13.8578C15.78 14.0458 15.5576 14.1558 15.3222 14.154H2.67521C2.26129 14.154 1.92573 13.8184 1.92573 13.4042C1.92573 13.3494 1.9317 13.2949 1.94365 13.2415L3.45104 6.45752C4.10881 3.49931 7.04032 1.63422 9.99888 2.29199C11.9775 2.73191 13.5523 4.2263 14.0952 6.17923L16.0443 13.2035C16.1086 13.4288 16.0636 13.6712 15.922 13.8578Z" fill="#D0D5DD"/>
</svg>
