<svg width="16" height="16" viewBox="0 0 16 16" fill="none" xmlns="http://www.w3.org/2000/svg">
<path d="M14.4608 10.9808C14.8236 11.3447 15.0273 11.8375 15.0273 12.3513C15.0273 12.8651 14.8236 13.358 14.4608 13.7218L13.8911 14.3785C8.76352 19.2876 -3.71412 6.81307 1.11917 1.66925L1.83915 1.04318C2.20338 0.690498 2.69182 0.495396 3.1988 0.500083C3.70577 0.504769 4.19052 0.708868 4.54817 1.06822C4.56758 1.08763 5.72769 2.59459 5.72769 2.59459C6.07192 2.95623 6.26355 3.43661 6.26273 3.93589C6.26192 4.43517 6.06872 4.91492 5.72331 5.27543L4.99832 6.187C5.39953 7.16186 5.98943 8.04784 6.73411 8.79402C7.47879 9.54021 8.36357 10.1319 9.33763 10.5351L10.2548 9.8057C10.6154 9.46055 11.0951 9.26758 11.5942 9.26689C12.0933 9.26619 12.5735 9.45781 12.935 9.80194C12.935 9.80194 14.4414 10.9614 14.4608 10.9808ZM13.5993 11.8911C13.5993 11.8911 12.1011 10.7385 12.0817 10.7191C11.9527 10.5913 11.7784 10.5195 11.5968 10.5195C11.4152 10.5195 11.2409 10.5913 11.1119 10.7191C11.095 10.7367 9.83223 11.7428 9.83223 11.7428C9.74713 11.8105 9.64585 11.8549 9.53838 11.8716C9.4309 11.8883 9.32093 11.8767 9.2193 11.8379C7.95742 11.3681 6.81126 10.6326 5.85844 9.68116C4.90562 8.72974 4.16839 7.58466 3.69671 6.32348C3.65489 6.22046 3.64125 6.10817 3.65721 5.99813C3.67316 5.8881 3.71813 5.7843 3.78749 5.69741C3.78749 5.69741 4.79359 4.43399 4.81049 4.41771C4.93838 4.28873 5.01014 4.11445 5.01014 3.93282C5.01014 3.75119 4.93838 3.57691 4.81049 3.44793C4.79109 3.42914 3.63849 1.9297 3.63849 1.9297C3.50757 1.81231 3.33672 1.74945 3.16095 1.75399C2.98517 1.75853 2.81779 1.83013 2.69311 1.95412L1.97313 2.58019C-1.55917 6.82747 9.25373 17.0406 12.9757 13.5233L13.5461 12.8659C13.6797 12.7421 13.76 12.5712 13.77 12.3893C13.7799 12.2074 13.7187 12.0288 13.5993 11.8911Z" fill="#667085"/>
</svg>
