<svg width="18" height="19" viewBox="0 0 18 19" fill="none" xmlns="http://www.w3.org/2000/svg">
<path d="M15.0002 0.65625H3.00004C2.20438 0.65625 1.44131 0.972325 0.878692 1.53494C0.316075 2.09756 0 2.86063 0 3.65629L0 12.6564C0 13.4521 0.316075 14.2152 0.878692 14.7778C1.44131 15.3404 2.20438 15.6565 3.00004 15.6565H5.17507L8.51337 18.4788C8.6488 18.5934 8.82046 18.6562 8.99788 18.6562C9.17529 18.6562 9.34696 18.5934 9.48238 18.4788L12.8252 15.6565H15.0002C15.7959 15.6565 16.5589 15.3404 17.1216 14.7778C17.6842 14.2152 18.0003 13.4521 18.0003 12.6564V3.65629C18.0003 2.86063 17.6842 2.09756 17.1216 1.53494C16.5589 0.972325 15.7959 0.65625 15.0002 0.65625V0.65625ZM16.5002 12.6564C16.5002 13.0542 16.3422 13.4358 16.0609 13.7171C15.7796 13.9984 15.398 14.1564 15.0002 14.1564H12.8252C12.4706 14.1565 12.1276 14.2822 11.8569 14.5112L9.00013 16.924L6.14484 14.5112C5.87375 14.2819 5.53013 14.1562 5.17507 14.1564H3.00004C2.60221 14.1564 2.22068 13.9984 1.93937 13.7171C1.65806 13.4358 1.50002 13.0542 1.50002 12.6564V3.65629C1.50002 3.25846 1.65806 2.87693 1.93937 2.59562C2.22068 2.31431 2.60221 2.15627 3.00004 2.15627H15.0002C15.398 2.15627 15.7796 2.31431 16.0609 2.59562C16.3422 2.87693 16.5002 3.25846 16.5002 3.65629V12.6564Z" fill="#D0D5DD"/>
</svg>
