<svg width="11" height="11" viewBox="0 0 11 11" fill="none" xmlns="http://www.w3.org/2000/svg">
<path fill-rule="evenodd" clip-rule="evenodd" d="M9.90711 3.21043C10.4565 4.03268 10.7498 4.99938 10.7498 5.98828V10.9883H5.74976C4.76085 10.9883 3.79415 10.695 2.97191 10.1456C2.14966 9.59622 1.5088 8.81533 1.13036 7.9017C0.751922 6.98807 0.652906 5.98274 0.845832 5.01283C1.03876 4.04293 1.51496 3.15201 2.21422 2.45275C2.91349 1.75349 3.8044 1.27728 4.77431 1.08436C5.74421 0.891431 6.74955 0.990448 7.66318 1.36889C8.57681 1.74732 9.3577 2.38819 9.90711 3.21043ZM9.91643 10.155V5.98828C9.91643 5.16419 9.67205 4.35861 9.21421 3.67341C8.75638 2.9882 8.10563 2.45415 7.34427 2.13879C6.58291 1.82342 5.74514 1.74091 4.93688 1.90168C4.12863 2.06245 3.3862 2.45929 2.80348 3.04201C2.22076 3.62472 1.82392 4.36715 1.66315 5.17541C1.50238 5.98366 1.58489 6.82144 1.90026 7.5828C2.21563 8.34416 2.74968 8.9949 3.43488 9.45274C4.12009 9.91058 4.92567 10.155 5.74976 10.155H9.91643ZM6.63985 5.81825L4.53045 7.92765C4.43501 8.02309 4.30557 8.0767 4.17061 8.0767C4.03564 8.0767 3.9062 8.02309 3.81076 7.92765C3.71533 7.83221 3.66171 7.70277 3.66171 7.56781C3.66171 7.43284 3.71533 7.3034 3.81076 7.20796L5.92016 5.09856H4.74995C4.61497 5.09859 4.48551 5.04501 4.39004 4.94958C4.29458 4.85416 4.24093 4.72472 4.2409 4.58974C4.24086 4.45477 4.29445 4.3253 4.38987 4.22984C4.4853 4.13437 4.61473 4.08072 4.74971 4.08069L6.47024 4.08069C6.78505 4.08112 7.08684 4.20637 7.30944 4.42897C7.53205 4.65157 7.65729 4.95336 7.65773 5.26817V6.9887C7.6577 7.12368 7.60404 7.25312 7.50858 7.34854C7.41311 7.44396 7.28365 7.49755 7.14867 7.49752C7.01369 7.49749 6.88425 7.44384 6.78883 7.34837C6.69341 7.2529 6.63982 7.12344 6.63985 6.98846V5.81825Z" fill="#667085"/>
</svg>
