<svg width="12" height="11" viewBox="0 0 12 11" fill="none" xmlns="http://www.w3.org/2000/svg">
<path d="M0.0898438 10.5026V7.102C0.0925762 4.68853 2.04836 2.73275 4.46183 2.73002H6.80812V1.95968C6.80835 1.42297 7.24327 0.988054 7.77998 0.988281C8.03752 0.988281 8.28458 1.09075 8.46675 1.27269L11.3231 4.12859C11.8919 4.69764 11.8919 5.62008 11.3231 6.18935L8.46652 9.04525C8.08716 9.42461 7.47189 9.42461 7.09253 9.04503C6.91036 8.86286 6.80812 8.6158 6.80812 8.35826V7.58793H3.97613C2.36715 7.58952 1.06307 8.8936 1.06147 10.5026C1.06147 10.7708 0.844011 10.9883 0.575771 10.9883C0.307532 10.9883 0.0898438 10.7708 0.0898438 10.5026ZM7.77975 3.21594C7.77975 3.48418 7.56229 3.70164 7.29405 3.70164H4.46183C2.58461 3.70369 1.06352 5.22501 1.06147 7.102V7.93472C1.7981 7.09631 2.86013 6.61607 3.97613 6.6163H7.29405C7.56229 6.6163 7.77975 6.83376 7.77975 7.102V8.35826L10.6357 5.50235C10.8253 5.31267 10.8253 5.00527 10.6357 4.81536L7.77975 1.95968V3.21594Z" fill="#667085"/>
</svg>
