<svg width="11" height="11" viewBox="0 0 11 11" fill="none" xmlns="http://www.w3.org/2000/svg">
<path d="M7.17086 0.988281C7.06035 0.988281 6.95437 1.03218 6.87623 1.11032C6.79809 1.18846 6.75419 1.29444 6.75419 1.40495C6.75419 2.6337 5.67794 3.07161 4.67086 3.07161H1.75419C1.31216 3.07161 0.888241 3.24721 0.57568 3.55977C0.263119 3.87233 0.0875244 4.29625 0.0875244 4.73828L0.0875244 5.57161C0.0884345 5.82109 0.145633 6.06714 0.254859 6.29144C0.364084 6.51573 0.522519 6.71248 0.718358 6.86703L2.20669 10.1887C2.31254 10.4267 2.4851 10.6288 2.70347 10.7707C2.92185 10.9126 3.17667 10.9882 3.43711 10.9883C3.64432 10.9881 3.84821 10.9362 4.03022 10.8371C4.21223 10.7381 4.36657 10.5951 4.47921 10.4212C4.59185 10.2473 4.6592 10.0479 4.67513 9.84132C4.69107 9.63472 4.65508 9.42742 4.57044 9.23828L3.65377 7.23828H4.67086C5.67794 7.23828 6.75419 7.6762 6.75419 8.90495C6.75419 9.01545 6.79809 9.12144 6.87623 9.19958C6.95437 9.27772 7.06035 9.32161 7.17086 9.32161C7.28137 9.32161 7.38735 9.27772 7.46549 9.19958C7.54363 9.12144 7.58753 9.01545 7.58753 8.90495V1.40495C7.58753 1.29444 7.54363 1.18846 7.46549 1.11032C7.38735 1.03218 7.28137 0.988281 7.17086 0.988281V0.988281ZM3.81127 9.57953C3.83887 9.64186 3.85048 9.71009 3.84504 9.77804C3.83961 9.84598 3.8173 9.9115 3.78014 9.96864C3.74298 10.0258 3.69214 10.0728 3.63224 10.1053C3.57234 10.1378 3.50527 10.1549 3.43711 10.1549C3.33769 10.1549 3.24043 10.1259 3.15714 10.0716C3.07386 10.0174 3.00813 9.94005 2.96794 9.84911L1.79794 7.23828H2.73711L3.81127 9.57953ZM6.75419 7.07161C6.1589 6.61294 5.42184 6.37708 4.67086 6.40495H1.75419C1.53318 6.40495 1.32122 6.31715 1.16494 6.16087C1.00866 6.00459 0.920858 5.79263 0.920858 5.57161V4.73828C0.920858 4.51727 1.00866 4.30531 1.16494 4.14903C1.32122 3.99275 1.53318 3.90495 1.75419 3.90495H4.67086C5.42159 3.9334 6.15862 3.69829 6.75419 3.24036V7.07161ZM10.0459 7.42661C10.0214 7.4756 9.98756 7.51929 9.94623 7.55519C9.90489 7.59109 9.85689 7.61849 9.80496 7.63582C9.75303 7.65316 9.69819 7.66009 9.64358 7.65622C9.58897 7.65236 9.53566 7.63776 9.48669 7.61328L8.65336 7.19661C8.55446 7.14722 8.47922 7.06056 8.44422 6.95569C8.40921 6.85083 8.4173 6.73635 8.46669 6.63745C8.51609 6.53854 8.60275 6.46331 8.70762 6.42831C8.81248 6.3933 8.92696 6.40138 9.02586 6.45078L9.85919 6.86745C9.95759 6.91681 10.0324 7.00311 10.0674 7.10749C10.1024 7.21187 10.0946 7.32585 10.0459 7.42453V7.42661ZM8.46669 3.67661C8.44221 3.62765 8.42762 3.57433 8.42375 3.51972C8.41988 3.46511 8.42681 3.41028 8.44415 3.35835C8.46149 3.30642 8.48889 3.25841 8.52478 3.21708C8.56068 3.17574 8.60437 3.14189 8.65336 3.11745L9.48669 2.70078C9.5856 2.65138 9.70007 2.6433 9.80494 2.67831C9.9098 2.71331 9.99646 2.78854 10.0459 2.88745C10.0953 2.98635 10.1033 3.10083 10.0683 3.20569C10.0333 3.31056 9.9581 3.39722 9.85919 3.44661L9.02586 3.86328C8.97689 3.88776 8.92358 3.90236 8.86897 3.90622C8.81436 3.91009 8.75952 3.90316 8.70759 3.88582C8.65566 3.86849 8.60766 3.84109 8.56632 3.80519C8.52499 3.76929 8.49113 3.7256 8.46669 3.67661V3.67661ZM8.42086 5.15495C8.42086 5.04444 8.46476 4.93846 8.5429 4.86032C8.62104 4.78218 8.72702 4.73828 8.83753 4.73828H9.67086C9.78137 4.73828 9.88735 4.78218 9.96549 4.86032C10.0436 4.93846 10.0875 5.04444 10.0875 5.15495C10.0875 5.26545 10.0436 5.37144 9.96549 5.44958C9.88735 5.52772 9.78137 5.57161 9.67086 5.57161H8.83753C8.72702 5.57161 8.62104 5.52772 8.5429 5.44958C8.46476 5.37144 8.42086 5.26545 8.42086 5.15495Z" fill="#667085"/>
</svg>
