<svg width="15" height="14" viewBox="0 0 15 14" fill="none" xmlns="http://www.w3.org/2000/svg">
<path d="M6.35322 0.443093C6.35343 0.443093 6.35362 0.442959 6.35369 0.442764C6.57788 -0.147698 7.42529 -0.147588 7.64995 0.443093L9.09892 4.45683C9.14947 4.58758 9.23849 4.69993 9.35421 4.77903C9.46994 4.85814 9.60693 4.9003 9.74711 4.89993H13.308C13.966 4.89993 14.2529 5.71891 13.7357 6.12001L11.2017 8.39987C11.0882 8.48713 11.0052 8.6081 10.9647 8.74543C10.9242 8.88275 10.9283 9.02938 10.9763 9.16426L11.9017 13.0863C12.1271 13.7163 11.3977 14.2574 10.8461 13.8696L7.40425 11.6856C7.28638 11.6028 7.14582 11.5583 7.00176 11.5583C6.85769 11.5583 6.71713 11.6028 6.59926 11.6856L3.15741 13.8696C2.60652 14.2574 1.87643 13.7156 2.10183 13.0863L3.02722 9.16426C3.07522 9.02938 3.07926 8.88275 3.03877 8.74543C2.99828 8.6081 2.91533 8.48713 2.80182 8.39987L0.267856 6.12001C-0.250136 5.71891 0.0382597 4.89993 0.69485 4.89993H4.2557C4.3959 4.90039 4.53294 4.85828 4.64868 4.77916C4.76443 4.70004 4.85342 4.58764 4.90389 4.45683L6.35275 0.443426C6.35282 0.443226 6.35301 0.443093 6.35322 0.443093V0.443093Z" fill="#F79009"/>
</svg>
