<svg width="21" height="20" viewBox="0 0 21 20" fill="none" xmlns="http://www.w3.org/2000/svg">
<path d="M12.5535 6.53682L12.5536 6.53678L10.4853 0.807441C10.3256 0.395858 9.72583 0.398334 9.56953 0.810008C9.56685 0.81705 9.56403 0.824017 9.56105 0.830905L7.5012 6.53678L7.4975 6.54702L7.49739 6.54698C7.38885 6.82832 7.19744 7.07007 6.94849 7.24025C6.69981 7.41024 6.40542 7.50081 6.10419 7.5M12.5535 6.53682L4.02791 12M12.5535 6.53682L12.5575 6.5473C12.6662 6.82842 12.8576 7.06998 13.1064 7.24007C13.355 7.41001 13.6493 7.50063 13.9504 7.5M12.5535 6.53682L13.9504 7.5M6.10419 7.5C6.10388 7.5 6.10356 7.5 6.10324 7.5L6.10491 7V7.5H6.10419ZM6.10419 7.5H1.01791C0.540062 7.5 0.363863 8.07652 0.714028 8.34766L0.728617 8.35896L0.742334 8.3713L4.34946 11.6167M4.34946 11.6167C4.34389 11.6123 4.33828 11.6079 4.33264 11.6036L4.02791 12M4.34946 11.6167L4.36233 11.6283L4.02791 12M4.34946 11.6167C4.58675 11.8047 4.76029 12.0615 4.846 12.3522C4.93086 12.64 4.92544 12.9466 4.83087 13.2309M4.02791 12C4.19007 12.1247 4.30857 12.2975 4.36642 12.4937C4.42427 12.6898 4.41849 12.8993 4.34991 13.092M4.83087 13.2309L4.83655 13.2068L4.34991 13.092M4.83087 13.2309L3.51455 18.8098L3.5081 18.8372L3.49863 18.8636C3.35036 19.2776 3.83804 19.6938 4.2481 19.4051L4.2579 19.3982L4.26802 19.3918L9.17605 16.2775M4.83087 13.2309C4.82767 13.2405 4.82437 13.2501 4.82097 13.2596L4.34991 13.092M4.34991 13.092L9.17605 16.2775M9.17605 16.2775C9.1725 16.28 9.16895 16.2824 9.16541 16.2849L9.45291 16.694L9.18502 16.2718L9.17605 16.2775ZM9.17605 16.2775C9.42643 16.1048 9.72351 16.0122 10.0279 16.0122C10.3323 16.0122 10.6294 16.1048 10.8798 16.2775M9.17605 16.2775L15.7059 13.092M10.8798 16.2775L10.8708 16.2718L10.6029 16.694L10.8904 16.2849C10.8869 16.2824 10.8833 16.28 10.8798 16.2775ZM10.8798 16.2775L15.7878 19.3918L15.7978 19.3982L15.8075 19.405C16.2189 19.6942 16.7055 19.2782 16.5571 18.8634L16.5477 18.8371L16.5413 18.8098L15.2249 13.2309M15.2249 13.2309C15.2281 13.2405 15.2314 13.2501 15.2348 13.2596L15.7059 13.092M15.2249 13.2309L15.2193 13.2068L15.7059 13.092M15.2249 13.2309C15.1304 12.9466 15.125 12.64 15.2098 12.3522C15.2955 12.0616 15.4691 11.8047 15.7064 11.6167M15.7059 13.092C15.6373 12.8993 15.6316 12.6898 15.6894 12.4937C15.7472 12.2975 15.8658 12.1247 16.0279 12M15.7064 11.6167L15.6935 11.6283L16.0279 12M15.7064 11.6167L19.3135 8.3713L19.3271 8.35907L19.3415 8.34786C19.6921 8.07607 19.5156 7.5 19.0369 7.5H13.9504M15.7064 11.6167C15.7119 11.6123 15.7175 11.6079 15.7232 11.6036L16.0279 12M16.0279 12L13.9504 7.5M13.9504 7.5H13.9499V7L13.9512 7.5C13.951 7.5 13.9507 7.5 13.9504 7.5Z" fill="white" stroke="#D0D5DD"/>
</svg>
