<svg width="21" height="20" viewBox="0 0 21 20" fill="none" xmlns="http://www.w3.org/2000/svg">
<path d="M9.10141 0.633C9.10171 0.633 9.10198 0.632808 9.10209 0.632529C9.42236 -0.211 10.633 -0.210843 10.9539 0.633L13.0239 6.367C13.0961 6.55379 13.2233 6.71428 13.3886 6.8273C13.5539 6.94031 13.7496 7.00053 13.9499 7H19.0369C19.9769 7 20.3869 8.17 19.6479 8.743L16.0279 12C15.8658 12.1247 15.7472 12.2975 15.6894 12.4937C15.6316 12.6898 15.6373 12.8993 15.7059 13.092L17.0279 18.695C17.3499 19.595 16.3079 20.368 15.5199 19.814L10.6029 16.694C10.4345 16.5757 10.2337 16.5122 10.0279 16.5122C9.8221 16.5122 9.6213 16.5757 9.45291 16.694L4.53591 19.814C3.74891 20.368 2.70591 19.594 3.02791 18.695L4.34991 13.092C4.41849 12.8993 4.42427 12.6898 4.36642 12.4937C4.30857 12.2975 4.19007 12.1247 4.02791 12L0.407909 8.743C-0.332091 8.17 0.0799085 7 1.01791 7H6.10491C6.3052 7.00067 6.50097 6.9405 6.66633 6.82747C6.83168 6.71444 6.95881 6.55387 7.03091 6.367L9.10074 0.633474C9.10084 0.63319 9.10111 0.633 9.10141 0.633V0.633Z" fill="#F79009"/>
</svg>
