<svg width="14" height="19" viewBox="0 0 14 19" fill="none" xmlns="http://www.w3.org/2000/svg">
<path d="M6.99999 9.65623C7.89 9.65623 8.76003 9.39231 9.50005 8.89784C10.2401 8.40338 10.8168 7.70058 11.1574 6.87831C11.498 6.05605 11.5871 5.15125 11.4135 4.27834C11.2399 3.40542 10.8113 2.6036 10.182 1.97427C9.55263 1.34493 8.7508 0.916351 7.87789 0.742718C7.00498 0.569085 6.10018 0.6582 5.27792 0.998793C4.45565 1.33939 3.75285 1.91616 3.25838 2.65618C2.76392 3.3962 2.5 4.26623 2.5 5.15624C2.50119 6.34935 2.97568 7.49324 3.81933 8.3369C4.66299 9.18055 5.80688 9.65504 6.99999 9.65623ZM6.99999 2.15625C7.59333 2.15625 8.17335 2.33219 8.66669 2.66184C9.16004 2.99148 9.54456 3.46002 9.77162 4.00819C9.99868 4.55637 10.0581 5.15957 9.94234 5.74151C9.82658 6.32345 9.54086 6.858 9.1213 7.27756C8.70175 7.69711 8.1672 7.98283 7.58526 8.09859C7.00332 8.21434 6.40012 8.15493 5.85194 7.92787C5.30376 7.70081 4.83523 7.31629 4.50559 6.82295C4.17594 6.3296 4 5.74958 4 5.15624C4 4.36059 4.31607 3.59753 4.87867 3.03493C5.44128 2.47232 6.20434 2.15625 6.99999 2.15625V2.15625Z" fill="#D0D5DD"/>
<path d="M6.99998 11.1562C5.21038 11.1582 3.49465 11.87 2.22922 13.1355C0.963779 14.4009 0.251985 16.1166 0.25 17.9062C0.25 18.1051 0.329017 18.2959 0.469669 18.4366C0.610321 18.5772 0.801086 18.6562 0.999998 18.6562C1.19891 18.6562 1.38967 18.5772 1.53033 18.4366C1.67098 18.2959 1.75 18.1051 1.75 17.9062C1.75 16.5138 2.30312 15.1785 3.28768 14.1939C4.27224 13.2094 5.6076 12.6562 6.99998 12.6562C8.39236 12.6562 9.72772 13.2094 10.7123 14.1939C11.6968 15.1785 12.25 16.5138 12.25 17.9062C12.25 18.1051 12.329 18.2959 12.4696 18.4366C12.6103 18.5772 12.8011 18.6562 13 18.6562C13.1989 18.6562 13.3896 18.5772 13.5303 18.4366C13.6709 18.2959 13.75 18.1051 13.75 17.9062C13.748 16.1166 13.0362 14.4009 11.7707 13.1355C10.5053 11.87 8.78958 11.1582 6.99998 11.1562V11.1562Z" fill="#D0D5DD"/>
</svg>
